<?xml version="1.0" encoding="utf-8"?>
<!-- Generator: Adobe Illustrator 23.0.1, SVG Export Plug-In . SVG Version: 6.00 Build 0)  -->
<svg version="1.1" id="Layer_1" xmlns="http://www.w3.org/2000/svg" xmlns:xlink="http://www.w3.org/1999/xlink" x="0px" y="0px"
	 viewBox="0 0 21 53" style="enable-background:new 0 0 21 53;" xml:space="preserve">
<style type="text/css">
	.st0{fill-rule:evenodd;clip-rule:evenodd;}
</style>
<path class="st0" d="M10.3,18.9c0.4,0,0.8,0.4,0.8,0.8v4.7c0,0.4-0.4,0.8-0.8,0.8c-0.4,0-0.8-0.4-0.8-0.8v-4.7
	C9.5,19.3,9.8,18.9,10.3,18.9z M11.1,50.2l2.6-2.6c0.2-0.2,0.3-0.2,0.6-0.2s0.4,0.1,0.6,0.2c0.3,0.3,0.3,0.8,0,1.1l-4,4
	c-0.2,0.2-0.4,0.2-0.6,0.2c-0.2,0-0.4-0.1-0.6-0.2l-4-4c-0.3-0.3-0.3-0.8,0-1.1c0.2-0.2,0.3-0.2,0.6-0.2s0.4,0.1,0.6,0.2l2.6,2.6
	V39.5c0-0.5,0.3-0.8,0.8-0.8c0.5,0,0.8,0.3,0.8,0.8V50.2z M7.4,42.9c0.4,0.1,0.6,0.6,0.5,1c-0.1,0.4-0.6,0.6-1,0.5
	c-0.9-0.3-3-1.2-4.7-3.4C0.1,38.5,0,35.6,0,34.7v-15c0-0.8,0.1-4.1,2.7-7c3-3.2,6.9-3.3,7.6-3.3c0.7,0,4.6,0.1,7.6,3.3
	c2.6,2.8,2.7,6.2,2.7,7v15c0,0.9-0.1,3.5-2,6.1c-1.8,2.4-4,3.3-4.9,3.6c-0.4,0.1-0.9-0.1-1-0.5c-0.1-0.4,0.1-0.9,0.5-1
	c0.8-0.3,2.6-1,4-2.9c1.7-2.2,1.8-4.5,1.8-5.3v-15c0-0.6-0.1-3.6-2.4-6c-2.5-2.6-5.8-2.7-6.3-2.7c-0.5,0-4,0.1-6.5,2.9
	c-2.3,2.6-2.2,5.6-2.2,6.2v14.5c0,0.8,0.1,3,1.8,5.2C4.8,41.9,6.6,42.7,7.4,42.9z M8.7,1.5C8.7,0.7,9.4,0,10.3,0
	c0.9,0,1.6,0.7,1.6,1.6c0,0.9-0.7,1.6-1.6,1.6C9.4,3.1,8.7,2.4,8.7,1.5z M8.7,6.3c0-0.9,0.7-1.6,1.6-1.6c0.9,0,1.6,0.7,1.6,1.6
	c0,0.9-0.7,1.6-1.6,1.6C9.4,7.9,8.7,7.2,8.7,6.3z"/>
</svg>
